<svg width="71" height="43" viewBox="0 0 71 43" fill="none" xmlns="http://www.w3.org/2000/svg">
<g clip-path="url(#clip0_3_22)">
<path fill-rule="evenodd" clip-rule="evenodd" d="M25.6354 38.3479H44.638V4.59024H25.6354V38.3479Z" fill="#0EC5FF"/>
<path fill-rule="evenodd" clip-rule="evenodd" d="M26.8421 21.469C26.8421 14.6204 30.0858 8.52082 35.1369 4.5902C31.4425 1.71514 26.7818 0 21.7156 0C9.72224 0 0.000131607 9.61216 0.000131607 21.469C0.000131607 33.3259 9.72224 42.938 21.7156 42.938C26.7818 42.938 31.4425 41.2229 35.1369 38.3478C30.0858 34.4166 26.8421 28.3176 26.8421 21.469Z" fill="#5967EA"/>
<path fill-rule="evenodd" clip-rule="evenodd" d="M69.5955 34.7725V33.9394H69.3754L69.1226 34.5125L68.8692 33.9394H68.649V34.7725H68.8041V34.1439L69.0418 34.686H69.2028L69.4405 34.1427V34.7725H69.5955ZM68.2014 34.7725V34.0813H68.4837V33.9406H67.7659V34.0813H68.0476V34.7725H68.2014ZM70.2736 21.4689C70.2736 33.3257 60.5509 42.9379 48.5581 42.9379C43.492 42.9379 38.8306 41.2228 35.1368 38.3477C40.1879 34.4171 43.4316 28.3175 43.4316 21.4689C43.4316 14.6208 40.1879 8.52126 35.1368 4.59004C38.8306 1.71498 43.492 -0.000152588 48.5581 -0.000152588C60.5509 -0.000152588 70.2736 9.61201 70.2736 21.4689Z" fill="#39DBBE"/>
</g>
<defs>
<clipPath id="clip0_3_22">
<rect width="71" height="43" fill="white"/>
</clipPath>
</defs>
</svg>
